<?xml version="1.0" encoding="UTF-8" standalone="no"?>
<!DOCTYPE svg PUBLIC "-//W3C//DTD SVG 1.1//EN"
 "http://www.w3.org/Graphics/SVG/1.1/DTD/svg11.dtd">
<!-- Generated by graphviz version 2.40.1 (20161225.0304)
 -->
<!-- Title: snakemake_dag Pages: 1 -->
<svg width="394pt" height="836pt"
 viewBox="0.00 0.00 394.14 836.00" xmlns="http://www.w3.org/2000/svg" xmlns:xlink="http://www.w3.org/1999/xlink">
<g id="graph0" class="graph" transform="scale(1 1) rotate(0) translate(4 832)">
<title>snakemake_dag</title>
<polygon fill="#ffffff" stroke="transparent" points="-4,4 -4,-832 390.1377,-832 390.1377,4 -4,4"/>
<!-- 0 -->
<g id="node1" class="node">
<title>0</title>
<path fill="none" stroke="#c6d856" stroke-width="2" stroke-dasharray="5,2" d="M210.2881,-36C210.2881,-36 180.2881,-36 180.2881,-36 174.2881,-36 168.2881,-30 168.2881,-24 168.2881,-24 168.2881,-12 168.2881,-12 168.2881,-6 174.2881,0 180.2881,0 180.2881,0 210.2881,0 210.2881,0 216.2881,0 222.2881,-6 222.2881,-12 222.2881,-12 222.2881,-24 222.2881,-24 222.2881,-30 216.2881,-36 210.2881,-36"/>
<text text-anchor="middle" x="195.2881" y="-15" font-family="sans" font-size="10.00" fill="#000000">export</text>
</g>
<!-- 1 -->
<g id="node2" class="node">
<title>1</title>
<path fill="none" stroke="#56d8a9" stroke-width="2" stroke-dasharray="5,2" d="M144.2881,-324C144.2881,-324 114.2881,-324 114.2881,-324 108.2881,-324 102.2881,-318 102.2881,-312 102.2881,-312 102.2881,-300 102.2881,-300 102.2881,-294 108.2881,-288 114.2881,-288 114.2881,-288 144.2881,-288 144.2881,-288 150.2881,-288 156.2881,-294 156.2881,-300 156.2881,-300 156.2881,-312 156.2881,-312 156.2881,-318 150.2881,-324 144.2881,-324"/>
<text text-anchor="middle" x="129.2881" y="-303" font-family="sans" font-size="10.00" fill="#000000">refine</text>
</g>
<!-- 1&#45;&gt;0 -->
<g id="edge1" class="edge">
<title>1&#45;&gt;0</title>
<path fill="none" stroke="#c0c0c0" stroke-width="2" d="M136.0037,-287.6711C139.6517,-277.2958 144.0626,-264.0264 147.2881,-252 166.9885,-178.5467 183.095,-90.2553 190.6477,-46.0745"/>
<polygon fill="#c0c0c0" stroke="#c0c0c0" stroke-width="2" points="194.1215,-46.5225 192.3386,-36.0787 187.2196,-45.3548 194.1215,-46.5225"/>
</g>
<!-- 3 -->
<g id="node4" class="node">
<title>3</title>
<path fill="none" stroke="#56d892" stroke-width="2" stroke-dasharray="5,2" d="M284.2881,-252C284.2881,-252 254.2881,-252 254.2881,-252 248.2881,-252 242.2881,-246 242.2881,-240 242.2881,-240 242.2881,-228 242.2881,-228 242.2881,-222 248.2881,-216 254.2881,-216 254.2881,-216 284.2881,-216 284.2881,-216 290.2881,-216 296.2881,-222 296.2881,-228 296.2881,-228 296.2881,-240 296.2881,-240 296.2881,-246 290.2881,-252 284.2881,-252"/>
<text text-anchor="middle" x="269.2881" y="-231" font-family="sans" font-size="10.00" fill="#000000">traits</text>
</g>
<!-- 1&#45;&gt;3 -->
<g id="edge13" class="edge">
<title>1&#45;&gt;3</title>
<path fill="none" stroke="#c0c0c0" stroke-width="2" d="M156.6138,-291.9468C178.3914,-280.7469 209.0798,-264.9642 232.9312,-252.6978"/>
<polygon fill="#c0c0c0" stroke="#c0c0c0" stroke-width="2" points="234.7391,-255.7038 242.0313,-248.0178 231.5376,-249.4788 234.7391,-255.7038"/>
</g>
<!-- 4 -->
<g id="node5" class="node">
<title>4</title>
<path fill="none" stroke="#568ad8" stroke-width="2" stroke-dasharray="5,2" d="M44.3658,-252C44.3658,-252 12.2103,-252 12.2103,-252 6.2103,-252 .2103,-246 .2103,-240 .2103,-240 .2103,-228 .2103,-228 .2103,-222 6.2103,-216 12.2103,-216 12.2103,-216 44.3658,-216 44.3658,-216 50.3658,-216 56.3658,-222 56.3658,-228 56.3658,-228 56.3658,-240 56.3658,-240 56.3658,-246 50.3658,-252 44.3658,-252"/>
<text text-anchor="middle" x="28.2881" y="-231" font-family="sans" font-size="10.00" fill="#000000">ancestral</text>
</g>
<!-- 1&#45;&gt;4 -->
<g id="edge15" class="edge">
<title>1&#45;&gt;4</title>
<path fill="none" stroke="#c0c0c0" stroke-width="2" d="M103.8015,-287.8314C91.1222,-278.7927 75.6285,-267.7476 61.9825,-258.0198"/>
<polygon fill="#c0c0c0" stroke="#c0c0c0" stroke-width="2" points="63.941,-255.1176 53.7665,-252.1628 59.8776,-260.8176 63.941,-255.1176"/>
</g>
<!-- 5 -->
<g id="node6" class="node">
<title>5</title>
<path fill="none" stroke="#d86e56" stroke-width="2" stroke-dasharray="5,2" d="M98.6437,-180C98.6437,-180 67.9324,-180 67.9324,-180 61.9324,-180 55.9324,-174 55.9324,-168 55.9324,-168 55.9324,-156 55.9324,-156 55.9324,-150 61.9324,-144 67.9324,-144 67.9324,-144 98.6437,-144 98.6437,-144 104.6437,-144 110.6437,-150 110.6437,-156 110.6437,-156 110.6437,-168 110.6437,-168 110.6437,-174 104.6437,-180 98.6437,-180"/>
<text text-anchor="middle" x="83.2881" y="-159" font-family="sans" font-size="10.00" fill="#000000">translate</text>
</g>
<!-- 1&#45;&gt;5 -->
<g id="edge17" class="edge">
<title>1&#45;&gt;5</title>
<path fill="none" stroke="#c0c0c0" stroke-width="2" d="M123.4622,-287.7623C115.5816,-263.0928 101.4516,-218.8598 92.2239,-189.9731"/>
<polygon fill="#c0c0c0" stroke="#c0c0c0" stroke-width="2" points="95.4438,-188.5503 89.0667,-180.0896 88.7757,-190.6805 95.4438,-188.5503"/>
</g>
<!-- 8 -->
<g id="node9" class="node">
<title>8</title>
<path fill="none" stroke="#d8a456" stroke-width="2" stroke-dasharray="5,2" d="M98.2881,-108C98.2881,-108 68.2881,-108 68.2881,-108 62.2881,-108 56.2881,-102 56.2881,-96 56.2881,-96 56.2881,-84 56.2881,-84 56.2881,-78 62.2881,-72 68.2881,-72 68.2881,-72 98.2881,-72 98.2881,-72 104.2881,-72 110.2881,-78 110.2881,-84 110.2881,-84 110.2881,-96 110.2881,-96 110.2881,-102 104.2881,-108 98.2881,-108"/>
<text text-anchor="middle" x="83.2881" y="-87" font-family="sans" font-size="10.00" fill="#000000">clades</text>
</g>
<!-- 1&#45;&gt;8 -->
<g id="edge22" class="edge">
<title>1&#45;&gt;8</title>
<path fill="none" stroke="#c0c0c0" stroke-width="2" d="M131.1654,-287.9213C133.6893,-257.3606 136.105,-193.9383 119.2881,-144 116.0321,-134.3313 110.5757,-124.7466 104.8828,-116.3962"/>
<polygon fill="#c0c0c0" stroke="#c0c0c0" stroke-width="2" points="107.6433,-114.2407 98.9468,-108.1891 101.9714,-118.3431 107.6433,-114.2407"/>
</g>
<!-- 2 -->
<g id="node3" class="node">
<title>2</title>
<path fill="none" stroke="#d88556" stroke-width="2" stroke-dasharray="5,2" d="M235.988,-684C235.988,-684 192.5882,-684 192.5882,-684 186.5882,-684 180.5882,-678 180.5882,-672 180.5882,-672 180.5882,-660 180.5882,-660 180.5882,-654 186.5882,-648 192.5882,-648 192.5882,-648 235.988,-648 235.988,-648 241.988,-648 247.988,-654 247.988,-660 247.988,-660 247.988,-672 247.988,-672 247.988,-678 241.988,-684 235.988,-684"/>
<text text-anchor="middle" x="214.2881" y="-663" font-family="sans" font-size="10.00" fill="#000000">geoscheme</text>
</g>
<!-- 2&#45;&gt;0 -->
<g id="edge2" class="edge">
<title>2&#45;&gt;0</title>
<path fill="none" stroke="#c0c0c0" stroke-width="2" d="M214.2881,-647.8146C214.2881,-620.4983 214.2881,-567.25 214.2881,-522 214.2881,-522 214.2881,-522 214.2881,-162 214.2881,-121.5282 206.8201,-75.2037 201.2481,-46.2725"/>
<polygon fill="#c0c0c0" stroke="#c0c0c0" stroke-width="2" points="204.6057,-45.2111 199.2249,-36.0844 197.7398,-46.5746 204.6057,-45.2111"/>
</g>
<!-- 2&#45;&gt;1 -->
<g id="edge11" class="edge">
<title>2&#45;&gt;1</title>
<path fill="none" stroke="#c0c0c0" stroke-width="2" d="M206.2293,-647.7668C195.0747,-620.8248 176.2881,-568.5405 176.2881,-522 176.2881,-522 176.2881,-522 176.2881,-450 176.2881,-409.1184 171.045,-398.4975 157.2881,-360 154.0865,-351.0406 149.6705,-341.6993 145.2913,-333.3545"/>
<polygon fill="#c0c0c0" stroke="#c0c0c0" stroke-width="2" points="148.2869,-331.5369 140.4295,-324.4298 142.1398,-334.8857 148.2869,-331.5369"/>
</g>
<!-- 2&#45;&gt;3 -->
<g id="edge14" class="edge">
<title>2&#45;&gt;3</title>
<path fill="none" stroke="#c0c0c0" stroke-width="2" d="M222.3469,-647.7668C233.5015,-620.8248 252.2881,-568.5405 252.2881,-522 252.2881,-522 252.2881,-522 252.2881,-378 252.2881,-337.5973 258.97,-291.2552 263.9555,-262.3013"/>
<polygon fill="#c0c0c0" stroke="#c0c0c0" stroke-width="2" points="267.4638,-262.5623 265.7657,-252.1045 260.5715,-261.3387 267.4638,-262.5623"/>
</g>
<!-- 6 -->
<g id="node7" class="node">
<title>6</title>
<path fill="none" stroke="#5673d8" stroke-width="2" stroke-dasharray="5,2" d="M322.2881,-540C322.2881,-540 292.2881,-540 292.2881,-540 286.2881,-540 280.2881,-534 280.2881,-528 280.2881,-528 280.2881,-516 280.2881,-516 280.2881,-510 286.2881,-504 292.2881,-504 292.2881,-504 322.2881,-504 322.2881,-504 328.2881,-504 334.2881,-510 334.2881,-516 334.2881,-516 334.2881,-528 334.2881,-528 334.2881,-534 328.2881,-540 322.2881,-540"/>
<text text-anchor="middle" x="307.2881" y="-519" font-family="sans" font-size="10.00" fill="#000000">colours</text>
</g>
<!-- 2&#45;&gt;6 -->
<g id="edge19" class="edge">
<title>2&#45;&gt;6</title>
<path fill="none" stroke="#c0c0c0" stroke-width="2" d="M234.7779,-647.8968C245.1336,-638.0114 257.3619,-625.1318 266.2881,-612 279.4816,-592.5904 290.2747,-568.2499 297.4694,-549.7775"/>
<polygon fill="#c0c0c0" stroke="#c0c0c0" stroke-width="2" points="300.8323,-550.7791 301.0887,-540.1873 294.2832,-548.3074 300.8323,-550.7791"/>
</g>
<!-- 7 -->
<g id="node8" class="node">
<title>7</title>
<path fill="none" stroke="#56d863" stroke-width="2" stroke-dasharray="5,2" d="M373.988,-612C373.988,-612 330.5882,-612 330.5882,-612 324.5882,-612 318.5882,-606 318.5882,-600 318.5882,-600 318.5882,-588 318.5882,-588 318.5882,-582 324.5882,-576 330.5882,-576 330.5882,-576 373.988,-576 373.988,-576 379.988,-576 385.988,-582 385.988,-588 385.988,-588 385.988,-600 385.988,-600 385.988,-606 379.988,-612 373.988,-612"/>
<text text-anchor="middle" x="352.2881" y="-591" font-family="sans" font-size="10.00" fill="#000000">coordinates</text>
</g>
<!-- 2&#45;&gt;7 -->
<g id="edge21" class="edge">
<title>2&#45;&gt;7</title>
<path fill="none" stroke="#c0c0c0" stroke-width="2" d="M248.0467,-648.3868C266.5079,-638.7549 289.5698,-626.7226 309.3051,-616.4259"/>
<polygon fill="#c0c0c0" stroke="#c0c0c0" stroke-width="2" points="311.1529,-619.4097 318.3997,-611.6809 307.9149,-613.2035 311.1529,-619.4097"/>
</g>
<!-- 13 -->
<g id="node14" class="node">
<title>13</title>
<path fill="none" stroke="#56d8c9" stroke-width="2" stroke-dasharray="5,2" d="M136.2881,-612C136.2881,-612 106.2881,-612 106.2881,-612 100.2881,-612 94.2881,-606 94.2881,-600 94.2881,-600 94.2881,-588 94.2881,-588 94.2881,-582 100.2881,-576 106.2881,-576 106.2881,-576 136.2881,-576 136.2881,-576 142.2881,-576 148.2881,-582 148.2881,-588 148.2881,-588 148.2881,-600 148.2881,-600 148.2881,-606 142.2881,-612 136.2881,-612"/>
<text text-anchor="middle" x="121.2881" y="-591" font-family="sans" font-size="10.00" fill="#000000">filter</text>
</g>
<!-- 2&#45;&gt;13 -->
<g id="edge31" class="edge">
<title>2&#45;&gt;13</title>
<path fill="none" stroke="#c0c0c0" stroke-width="2" d="M190.8203,-647.8314C179.2554,-638.8779 165.1477,-627.9558 152.6697,-618.2955"/>
<polygon fill="#c0c0c0" stroke="#c0c0c0" stroke-width="2" points="154.7983,-615.5171 144.7484,-612.1628 150.513,-621.0521 154.7983,-615.5171"/>
</g>
<!-- 3&#45;&gt;0 -->
<g id="edge3" class="edge">
<title>3&#45;&gt;0</title>
<path fill="none" stroke="#c0c0c0" stroke-width="2" d="M266.5431,-215.9362C261.5056,-185.3976 249.3256,-122.007 228.2881,-72 224.4084,-62.7778 219.1133,-53.2838 213.9006,-44.8783"/>
<polygon fill="#c0c0c0" stroke="#c0c0c0" stroke-width="2" points="216.7023,-42.7642 208.3475,-36.249 210.8158,-46.5523 216.7023,-42.7642"/>
</g>
<!-- 4&#45;&gt;0 -->
<g id="edge4" class="edge">
<title>4&#45;&gt;0</title>
<path fill="none" stroke="#c0c0c0" stroke-width="2" d="M24.55,-215.9287C18.8815,-183.0701 12.1764,-113.1408 47.2881,-72 75.0452,-39.4766 124.0916,-26.5378 158.0758,-21.3927"/>
<polygon fill="#c0c0c0" stroke="#c0c0c0" stroke-width="2" points="158.66,-24.8455 168.0988,-20.0331 157.719,-17.9091 158.66,-24.8455"/>
</g>
<!-- 4&#45;&gt;5 -->
<g id="edge18" class="edge">
<title>4&#45;&gt;5</title>
<path fill="none" stroke="#c0c0c0" stroke-width="2" d="M42.1669,-215.8314C48.5016,-207.5386 56.1265,-197.557 63.0807,-188.4533"/>
<polygon fill="#c0c0c0" stroke="#c0c0c0" stroke-width="2" points="65.9333,-190.4847 69.2224,-180.4133 60.3706,-186.2353 65.9333,-190.4847"/>
</g>
<!-- 4&#45;&gt;8 -->
<g id="edge24" class="edge">
<title>4&#45;&gt;8</title>
<path fill="none" stroke="#c0c0c0" stroke-width="2" d="M30.0786,-215.8083C32.3768,-197.1875 37.3225,-167.7008 47.2881,-144 51.2425,-134.5953 56.9033,-125.0879 62.5686,-116.727"/>
<polygon fill="#c0c0c0" stroke="#c0c0c0" stroke-width="2" points="65.4839,-118.6664 68.4028,-108.4815 59.7697,-114.6231 65.4839,-118.6664"/>
</g>
<!-- 5&#45;&gt;0 -->
<g id="edge5" class="edge">
<title>5&#45;&gt;0</title>
<path fill="none" stroke="#c0c0c0" stroke-width="2" d="M97.473,-143.7623C117.0811,-118.5518 152.5801,-72.9103 174.9919,-44.0952"/>
<polygon fill="#c0c0c0" stroke="#c0c0c0" stroke-width="2" points="177.8417,-46.132 181.2184,-36.0896 172.3162,-41.8344 177.8417,-46.132"/>
</g>
<!-- 5&#45;&gt;8 -->
<g id="edge23" class="edge">
<title>5&#45;&gt;8</title>
<path fill="none" stroke="#c0c0c0" stroke-width="2" d="M83.2881,-143.8314C83.2881,-136.131 83.2881,-126.9743 83.2881,-118.4166"/>
<polygon fill="#c0c0c0" stroke="#c0c0c0" stroke-width="2" points="86.7882,-118.4132 83.2881,-108.4133 79.7882,-118.4133 86.7882,-118.4132"/>
</g>
<!-- 6&#45;&gt;0 -->
<g id="edge6" class="edge">
<title>6&#45;&gt;0</title>
<path fill="none" stroke="#c0c0c0" stroke-width="2" d="M310.8105,-503.8955C315.7899,-476.6824 324.2881,-423.5642 324.2881,-378 324.2881,-378 324.2881,-378 324.2881,-162 324.2881,-105.9126 269.3238,-61.6916 231.1508,-37.7431"/>
<polygon fill="#c0c0c0" stroke="#c0c0c0" stroke-width="2" points="232.6933,-34.5848 222.3307,-32.3786 229.0557,-40.5654 232.6933,-34.5848"/>
</g>
<!-- 7&#45;&gt;0 -->
<g id="edge7" class="edge">
<title>7&#45;&gt;0</title>
<path fill="none" stroke="#c0c0c0" stroke-width="2" d="M354.3601,-575.8427C357.2892,-548.5621 362.2881,-495.359 362.2881,-450 362.2881,-450 362.2881,-450 362.2881,-162 362.2881,-93.6287 281.0108,-50.57 231.8595,-30.7818"/>
<polygon fill="#c0c0c0" stroke="#c0c0c0" stroke-width="2" points="233.0797,-27.501 222.4912,-27.1338 230.5396,-34.0239 233.0797,-27.501"/>
</g>
<!-- 7&#45;&gt;6 -->
<g id="edge20" class="edge">
<title>7&#45;&gt;6</title>
<path fill="none" stroke="#c0c0c0" stroke-width="2" d="M340.9327,-575.8314C335.8555,-567.7079 329.7654,-557.9637 324.1705,-549.0118"/>
<polygon fill="#c0c0c0" stroke="#c0c0c0" stroke-width="2" points="327.0644,-547.0383 318.7964,-540.4133 321.1284,-550.7483 327.0644,-547.0383"/>
</g>
<!-- 8&#45;&gt;0 -->
<g id="edge8" class="edge">
<title>8&#45;&gt;0</title>
<path fill="none" stroke="#c0c0c0" stroke-width="2" d="M110.4002,-72.5708C125.1487,-63.0896 143.5785,-51.2419 159.4937,-41.0107"/>
<polygon fill="#c0c0c0" stroke="#c0c0c0" stroke-width="2" points="161.5184,-43.87 168.0375,-35.5182 157.733,-37.9817 161.5184,-43.87"/>
</g>
<!-- 9 -->
<g id="node10" class="node">
<title>9</title>
<path fill="none" stroke="#d8d356" stroke-width="2" stroke-dasharray="5,2" d="M136.2881,-396C136.2881,-396 106.2881,-396 106.2881,-396 100.2881,-396 94.2881,-390 94.2881,-384 94.2881,-384 94.2881,-372 94.2881,-372 94.2881,-366 100.2881,-360 106.2881,-360 106.2881,-360 136.2881,-360 136.2881,-360 142.2881,-360 148.2881,-366 148.2881,-372 148.2881,-372 148.2881,-384 148.2881,-384 148.2881,-390 142.2881,-396 136.2881,-396"/>
<text text-anchor="middle" x="121.2881" y="-375" font-family="sans" font-size="10.00" fill="#000000">tree</text>
</g>
<!-- 9&#45;&gt;1 -->
<g id="edge9" class="edge">
<title>9&#45;&gt;1</title>
<path fill="none" stroke="#c0c0c0" stroke-width="2" d="M123.3068,-359.8314C124.1624,-352.131 125.1798,-342.9743 126.1307,-334.4166"/>
<polygon fill="#c0c0c0" stroke="#c0c0c0" stroke-width="2" points="129.6164,-334.7386 127.2422,-324.4133 122.6592,-333.9656 129.6164,-334.7386"/>
</g>
<!-- 10 -->
<g id="node11" class="node">
<title>10</title>
<path fill="none" stroke="#56b9d8" stroke-width="2" stroke-dasharray="5,2" d="M109.2881,-540C109.2881,-540 79.2881,-540 79.2881,-540 73.2881,-540 67.2881,-534 67.2881,-528 67.2881,-528 67.2881,-516 67.2881,-516 67.2881,-510 73.2881,-504 79.2881,-504 79.2881,-504 109.2881,-504 109.2881,-504 115.2881,-504 121.2881,-510 121.2881,-516 121.2881,-516 121.2881,-528 121.2881,-528 121.2881,-534 115.2881,-540 109.2881,-540"/>
<text text-anchor="middle" x="94.2881" y="-519" font-family="sans" font-size="10.00" fill="#000000">align</text>
</g>
<!-- 10&#45;&gt;1 -->
<g id="edge10" class="edge">
<title>10&#45;&gt;1</title>
<path fill="none" stroke="#c0c0c0" stroke-width="2" d="M88.8306,-503.8534C80.5713,-473.1926 67.6296,-409.6268 85.2881,-360 88.8759,-349.9169 95.2416,-340.3517 102.0356,-332.1515"/>
<polygon fill="#c0c0c0" stroke="#c0c0c0" stroke-width="2" points="104.8627,-334.2389 108.8855,-324.4375 99.6285,-329.591 104.8627,-334.2389"/>
</g>
<!-- 10&#45;&gt;4 -->
<g id="edge16" class="edge">
<title>10&#45;&gt;4</title>
<path fill="none" stroke="#c0c0c0" stroke-width="2" d="M86.2558,-503.7893C81.9381,-493.4509 76.7961,-480.1792 73.2881,-468 52.2908,-395.1006 38.2848,-306.5696 32.0281,-262.2082"/>
<polygon fill="#c0c0c0" stroke="#c0c0c0" stroke-width="2" points="35.4768,-261.5953 30.639,-252.1695 28.5428,-262.5548 35.4768,-261.5953"/>
</g>
<!-- 12 -->
<g id="node13" class="node">
<title>12</title>
<path fill="none" stroke="#d8bc56" stroke-width="2" stroke-dasharray="5,2" d="M136.2881,-468C136.2881,-468 106.2881,-468 106.2881,-468 100.2881,-468 94.2881,-462 94.2881,-456 94.2881,-456 94.2881,-444 94.2881,-444 94.2881,-438 100.2881,-432 106.2881,-432 106.2881,-432 136.2881,-432 136.2881,-432 142.2881,-432 148.2881,-438 148.2881,-444 148.2881,-444 148.2881,-456 148.2881,-456 148.2881,-462 142.2881,-468 136.2881,-468"/>
<text text-anchor="middle" x="121.2881" y="-447" font-family="sans" font-size="10.00" fill="#000000">mask</text>
</g>
<!-- 10&#45;&gt;12 -->
<g id="edge29" class="edge">
<title>10&#45;&gt;12</title>
<path fill="none" stroke="#c0c0c0" stroke-width="2" d="M101.1013,-503.8314C104.0524,-495.9617 107.5739,-486.5712 110.8431,-477.8533"/>
<polygon fill="#c0c0c0" stroke="#c0c0c0" stroke-width="2" points="114.149,-479.0055 114.3831,-468.4133 107.5947,-476.5476 114.149,-479.0055"/>
</g>
<!-- 11 -->
<g id="node12" class="node">
<title>11</title>
<path fill="none" stroke="#56d87b" stroke-width="2" stroke-dasharray="5,2" d="M197.4357,-756C197.4357,-756 139.1405,-756 139.1405,-756 133.1405,-756 127.1405,-750 127.1405,-744 127.1405,-744 127.1405,-732 127.1405,-732 127.1405,-726 133.1405,-720 139.1405,-720 139.1405,-720 197.4357,-720 197.4357,-720 203.4357,-720 209.4357,-726 209.4357,-732 209.4357,-732 209.4357,-744 209.4357,-744 209.4357,-750 203.4357,-756 197.4357,-756"/>
<text text-anchor="middle" x="168.2881" y="-735" font-family="sans" font-size="10.00" fill="#000000">filter_metadata</text>
</g>
<!-- 11&#45;&gt;2 -->
<g id="edge12" class="edge">
<title>11&#45;&gt;2</title>
<path fill="none" stroke="#c0c0c0" stroke-width="2" d="M179.8958,-719.8314C185.0858,-711.7079 191.3113,-701.9637 197.0306,-693.0118"/>
<polygon fill="#c0c0c0" stroke="#c0c0c0" stroke-width="2" points="200.0896,-694.7246 202.5241,-684.4133 194.1907,-690.9559 200.0896,-694.7246"/>
</g>
<!-- 11&#45;&gt;13 -->
<g id="edge30" class="edge">
<title>11&#45;&gt;13</title>
<path fill="none" stroke="#c0c0c0" stroke-width="2" d="M162.3355,-719.7623C154.2837,-695.0928 139.8465,-650.8598 130.4182,-621.9731"/>
<polygon fill="#c0c0c0" stroke="#c0c0c0" stroke-width="2" points="133.6225,-620.5101 127.1923,-612.0896 126.9679,-622.6821 133.6225,-620.5101"/>
</g>
<!-- 12&#45;&gt;9 -->
<g id="edge25" class="edge">
<title>12&#45;&gt;9</title>
<path fill="none" stroke="#c0c0c0" stroke-width="2" d="M121.2881,-431.8314C121.2881,-424.131 121.2881,-414.9743 121.2881,-406.4166"/>
<polygon fill="#c0c0c0" stroke="#c0c0c0" stroke-width="2" points="124.7882,-406.4132 121.2881,-396.4133 117.7882,-406.4133 124.7882,-406.4132"/>
</g>
<!-- 13&#45;&gt;10 -->
<g id="edge26" class="edge">
<title>13&#45;&gt;10</title>
<path fill="none" stroke="#c0c0c0" stroke-width="2" d="M114.4748,-575.8314C111.5237,-567.9617 108.0023,-558.5712 104.7331,-549.8533"/>
<polygon fill="#c0c0c0" stroke="#c0c0c0" stroke-width="2" points="107.9815,-548.5476 101.1931,-540.4133 101.4272,-551.0055 107.9815,-548.5476"/>
</g>
<!-- 14 -->
<g id="node15" class="node">
<title>14</title>
<path fill="none" stroke="#afd856" stroke-width="2" stroke-dasharray="5,2" d="M154.4042,-828C154.4042,-828 92.172,-828 92.172,-828 86.172,-828 80.172,-822 80.172,-816 80.172,-816 80.172,-804 80.172,-804 80.172,-798 86.172,-792 92.172,-792 92.172,-792 154.4042,-792 154.4042,-792 160.4042,-792 166.4042,-798 166.4042,-804 166.4042,-804 166.4042,-816 166.4042,-816 166.4042,-822 160.4042,-828 154.4042,-828"/>
<text text-anchor="middle" x="123.2881" y="-807" font-family="sans" font-size="10.00" fill="#000000">add_sequences</text>
</g>
<!-- 14&#45;&gt;11 -->
<g id="edge27" class="edge">
<title>14&#45;&gt;11</title>
<path fill="none" stroke="#c0c0c0" stroke-width="2" d="M134.6435,-791.8314C139.7207,-783.7079 145.8108,-773.9637 151.4057,-765.0118"/>
<polygon fill="#c0c0c0" stroke="#c0c0c0" stroke-width="2" points="154.4478,-766.7483 156.7798,-756.4133 148.5118,-763.0383 154.4478,-766.7483"/>
</g>
<!-- 15 -->
<g id="node16" class="node">
<title>15</title>
<path fill="none" stroke="#d85656" stroke-width="2" stroke-dasharray="5,2" d="M231.6009,-828C231.6009,-828 196.9753,-828 196.9753,-828 190.9753,-828 184.9753,-822 184.9753,-816 184.9753,-816 184.9753,-804 184.9753,-804 184.9753,-798 190.9753,-792 196.9753,-792 196.9753,-792 231.6009,-792 231.6009,-792 237.6009,-792 243.6009,-798 243.6009,-804 243.6009,-804 243.6009,-816 243.6009,-816 243.6009,-822 237.6009,-828 231.6009,-828"/>
<text text-anchor="middle" x="214.2881" y="-807" font-family="sans" font-size="10.00" fill="#000000">download</text>
</g>
<!-- 15&#45;&gt;11 -->
<g id="edge28" class="edge">
<title>15&#45;&gt;11</title>
<path fill="none" stroke="#c0c0c0" stroke-width="2" d="M202.6803,-791.8314C197.4903,-783.7079 191.2649,-773.9637 185.5456,-765.0118"/>
<polygon fill="#c0c0c0" stroke="#c0c0c0" stroke-width="2" points="188.3855,-762.9559 180.0521,-756.4133 182.4866,-766.7246 188.3855,-762.9559"/>
</g>
</g>
</svg>
